<?xml version="1.0" encoding="utf-8"?>
<!-- Generator: Adobe Illustrator 24.1.2, SVG Export Plug-In . SVG Version: 6.00 Build 0)  -->
<svg version="1.1" xmlns="http://www.w3.org/2000/svg" xmlns:xlink="http://www.w3.org/1999/xlink" x="0px" y="0px"
	 viewBox="0 0 256 256" style="enable-background:new 0 0 256 256;" xml:space="preserve">
<style type="text/css">
	.st0{display:none;}
	.st1{display:inline;opacity:0.27;}
	.st2{fill:#FFFFFF;}
	.st3{fill:#1793D1;}
	.st4{opacity:0.27;}
	.st5{fill:none;}
	.st6{font-family:'Share-Bold';}
	.st7{font-size:30px;}
</style>
<g id="Widgit_Source_1_" class="st0">
	<g id="Widgit_2_" class="st1">
		<g id="g3819_2_" transform="translate(197.3912,328.4617)">
		</g>
		<g id="g3823_2_" transform="translate(234.6236,343.6334)">
			<path id="path3825_2_" class="st2" d="M14.7-139.8c-1.3,0.8-2.4,1.9-3.2,3.4c-2.6,4.5-1.1,10.3,3.5,13c4.5,2.6,10.3,1.1,13-3.5
				c2.6-4.5,1-10.4-3.5-13C21.3-141.7,17.6-141.5,14.7-139.8L14.7-139.8z"/>
		</g>
		<g id="g3827_2_" transform="translate(232.8028,277.0195)">
			<path id="path3829_2_" class="st2" d="M-7.6-33.9c-1.5,0.9-2.8,2.2-3.7,3.8c-3,5.2-1.2,11.9,4,14.9c5.2,3,11.9,1.2,14.9-4
				c3-5.2,1.2-11.9-4-14.9C0-36.1-4.3-35.9-7.6-33.9"/>
		</g>
		<g id="g3831_2_" transform="translate(246.7023,361.8328)">
			<path id="path3833_2_" class="st2" d="M16.2-164.7l21.4,37.1L16.2-90.6l-42.8,0L-48-127.6l21.4-37.1L16.2-164.7z M21.1-173.1
				l-52.5,0l-26.2,45.5l26.3,45.5l52.5,0l26.2-45.5L21.1-173.1z"/>
		</g>
		<g id="g3835_2_" transform="translate(246.6597,300.3358)">
			<path id="path3837_2_" class="st2" d="M-5.1-66.4c5.9,3.4,5.8-2.8,9.9,2.6c4.2,5.4-1.8,3.7,0,10.3c1.8,6.6,6.1,2.2,5.2,8.9
				c-0.9,6.7-3.9,1.4-7.3,7.3c-1.5,2.6-1.1,4.1-0.7,5.2l12.5,0l19.7-34.1l-7.5-13.1c-0.1,0.4-0.3,0.8-0.7,1.4
				c-2.8,4.8-3.4-0.2-7.8,3.2c-4.4,3.4,0.3,5.2-5.1,6.7c-5.4,1.4-2.3-2.5-7.7-3.2c-5.5-0.7-3.5,3.9-8.3,1.1L-5.1-66.4z M-24.9-100.3
				l-19.7,34.1l6.3,10.9c1.2-0.2,2.6-0.6,4.1-3.2c3.4-5.9-2.8-5.8,2.6-10c0.3-0.3,0.6-0.5,0.9-0.7c4.3-2.8,3.2,2.4,9.4,0.7
				c6.6-1.8,2.2-6.1,8.9-5.2c6.7,0.9,1.4,3.9,7.3,7.3l2.1-3.7c-4.8-2.8,0.2-3.4-3.2-7.8c-3.4-4.4-5.2,0.3-6.7-5.1s2.5-2.3,3.2-7.7
				c0.7-5.5-3.9-3.5-1.1-8.3c0.3-0.5,0.6-0.9,0.9-1.3L-24.9-100.3L-24.9-100.3z"/>
		</g>
	</g>
</g>
<g id="Frame">
	<g id="Background_8_">
		<rect y="0" class="st3" width="256" height="256"/>
	</g>
</g>
<g id="Matte">
	<g id="Background_1_">
		<rect x="4" y="4" class="st2" width="248" height="248"/>
	</g>
</g>
<g id="Canvas">
	<g id="Background_2_">
		<rect x="8" y="8" class="st3" width="240" height="240"/>
	</g>
</g>
<g id="Widgit">
	<g class="st4">
		<path class="st2" d="M248,204.9c-0.7,0.7-1.4,1.4-1.9,2.3c-2.3,4-1.4,8.9,1.9,11.8V204.9z"/>
		<path class="st2" d="M236.4,243c-3.6-2.1-7.9-1.9-11.2,0.2c-1.5,0.9-2.8,2.2-3.7,3.8c-0.2,0.3-0.4,0.7-0.5,1h19.9
			C240,246,238.5,244.2,236.4,243z"/>
		<polygon class="st2" points="198.7,234.2 220.1,197.1 248,197.1 248,188.7 215.2,188.7 189,234.2 197,248 206.7,248 		"/>
		<path class="st2" d="M215.1,231.9c0.3-0.3,0.6-0.5,0.9-0.7c4.3-2.8,3.2,2.4,9.4,0.7c6.6-1.8,2.2-6.1,8.9-5.2
			c6.7,0.9,1.4,3.9,7.3,7.3l0,0c3.6,2.1,4.9,0.6,6.4,0.3v-4.2c-1,0.9-1.5,1.7-4.3,0.1l0,0c-4.8-2.8,0.2-3.4-3.2-7.8
			c-3.4-4.4-5.2,0.3-6.7-5.1s2.5-2.3,3.2-7.7c0.7-5.5-3.9-3.5-1.1-8.3c0.3-0.5,0.6-0.9,0.9-1.3l-15.1,0l0,0l-19.7,34.1l6.3,10.9
			c1.2-0.2,2.6-0.6,4.1-3.2C215.9,235.9,209.7,236,215.1,231.9z"/>
	</g>
</g>
<g id="Label">
	<rect x="15" y="186.6" class="st5" width="232" height="56.8"/>
	<text transform="matrix(1 0 0 1 15 209.2285)"><tspan x="0" y="0" class="st2 st6 st7">simple</tspan><tspan x="0" y="30" class="st2 st6 st7">attribution</tspan></text>
</g>
<g id="Icon">
	<path class="st2" d="M150,78v33.4h-9.3v39.7h-25.4v-39.7H106V78c0-1.4,0.5-2.7,1.5-3.7c1-1,2.3-1.5,3.7-1.5h33.6
		c1.4,0,2.6,0.5,3.7,1.5C149.5,75.3,150,76.6,150,78z M116.6,57c0-7.7,3.8-11.5,11.4-11.5c7.6,0,11.4,3.9,11.4,11.5
		c0,7.6-3.8,11.4-11.4,11.4C120.4,68.4,116.6,64.6,116.6,57z M127.9,16.6c46.7,0,81.8,36.3,81.8,81.7c0,48.5-39,81.7-81.8,81.7
		c-44.1,0-81.6-36.1-81.6-81.7C46.3,54.5,80.8,16.6,127.9,16.6z M128.1,31.3c-38.9,0-67.1,32.3-67.1,67c0,36.2,30,66.8,67.1,66.8
		c34,0,66.8-26.7,66.8-66.8C195,60.8,165.2,31.3,128.1,31.3L128.1,31.3z"/>
</g>
</svg>
